<svg id="Layer_1"
     xmlns="http://www.w3.org/2000/svg" viewBox="0 0 400 400">
    <defs>
        <style>.cls-1{fill:#fff;}.cls-2{fill:#0091ea;}.cls-3{fill:#01bcd5;}.cls-4{fill:none;}</style>
    </defs>
    <title>launcher_logo</title>

    <path class="cls-2"
          d="M140.13,161c0,2.89.09,5.53-.07,8.16,0,.58-.88,1.26-1.52,1.63-9.53,5.56-19.18,10.92-28.6,16.66-6.55,4-10.26,10.08-10.33,17.83-.16,17.23,0,34.47,0,51.71,0,.73,0,1.46,0,2.5h2.75q21.51,0,43,0c3.75,0,3.49.61,3.49-3.42q0-48.92,0-97.84a3.51,3.51,0,0,1,1.34-3.23q30.06-23.31,60-46.71c3-2.31,5.95-4.6,9.45-7.31V259.44h23.56c0-.84.13-1.62.13-2.41q0-84.25-.05-168.49a4.22,4.22,0,0,0-1.45-2.9Q220.33,68.74,198.69,52c-3.32-2.58-6.62-5.17-10.46-8.18,0,1.37,0,2.13,0,2.9q0,35.55,0,71.1a3.5,3.5,0,0,1-1.45,3.22c-2.09,1.51-4.12,3.11-6.4,4.84V27.71l14.11,11q16.77,13,33.53,26.08c7.31,5.7,14.64,11.38,21.88,17.17a4,4,0,0,1,1.16,2.81q.08,68.09,0,136.17,0,17.72,0,35.44c0,3.19,0,3.2,3.08,3.2h43.91c.66,0,1.31-.06,2.29-.1,0-1,0-1.94,0-2.88,0-17.16.12-34.32-.05-51.48a19.91,19.91,0,0,0-9.8-17.24c-9.54-6-19.41-11.38-29.17-17a2.54,2.54,0,0,1-1.56-2.6c.1-2.3,0-4.6,0-7.16a16.6,16.6,0,0,1,1.66.71c10.59,6.09,21.15,12.21,31.75,18.28,8.27,4.74,12.78,12.1,14.82,21.16a19.39,19.39,0,0,1,.2,4.22q0,29.75,0,59.51c0,.66,0,1.32,0,2.15H91.92a6.69,6.69,0,0,1-.24-1.26c0-20.73-.21-41.46.19-62.18a26.12,26.12,0,0,1,12.64-22.1c11.19-7.08,22.86-13.41,34.33-20A11.72,11.72,0,0,1,140.13,161ZM188.38,141V259.34H211.5V117.52c-.93.65-1.62,1.09-2.26,1.59Q183.71,139,158.17,158.89A3.51,3.51,0,0,0,156.6,162q.06,47.35,0,94.7c0,.86,0,1.72,0,2.8,7.67,0,15,0,22.34-.06.46,0,1.11-.76,1.3-1.3a6.9,6.9,0,0,0,.09-2.21q0-53.59,0-107.18a3,3,0,0,1,.76-2.09C183.32,144.81,185.64,143.1,188.38,141Z"/>
    <path class="cls-3"
          d="M200,276.19,263.78,340l-18.52,10.72c-10.2,5.89-20.31,11.93-30.63,17.6-9.57,5.26-19.55,5.41-29.07.1-16.3-9.08-32.36-18.58-48.52-27.91-.31-.18-.6-.4-.8-.53Z"/>
    <path class="cls-2"
          d="M187.33,276.09l-59.1,59.14c-6.68-3.87-13.45-8-20.4-11.75-8.6-4.66-13.61-11.84-15.74-21.19a23.81,23.81,0,0,1-.38-5.08c0-6.31,0-12.62-.07-18.93,0-1.7.45-2.3,2.26-2.29q46.22.07,92.44,0C186.69,276,187,276.06,187.33,276.09Z"/>
    <path class="cls-2"
          d="M308.29,276.18c0,2.15,0,4.13,0,6.12,0,5.64.26,11.31-.14,16.93-.7,10-5.52,17.7-14,23-6.6,4.11-13.48,7.76-20.14,11.77-1.89,1.14-3,1.15-4.63-.53q-27.91-28.15-56-56.11a4.57,4.57,0,0,0-1.18-.62l.4-.52Z"/>
    <path class="cls-1" d="M197.32,315.29v9h-8.94v-9Z"/>
    <path class="cls-1" d="M202.78,315.21h8.83v9.18h-8.83Z"/>
    <path class="cls-1" d="M188.37,338.65v-9h8.89v9Z"/>

    <path class="cls-1" d="M202.73,338.68h8.84V329.6h-8.84Z"/>

</svg>